<svg width="32" height="32" viewBox="0 0 32 32" fill="none" xmlns="http://www.w3.org/2000/svg">
<path d="M27.5303 3.5656L17.5366 10.9881L19.3847 6.60891L27.5303 3.5656Z" fill="#E2761B" stroke="#E2761B" stroke-linecap="round" stroke-linejoin="round"/>
<path d="M4.45947 3.5656L14.3729 11.0584L12.6152 6.60891L4.45947 3.5656Z" fill="#E4761B" stroke="#E4761B" stroke-linecap="round" stroke-linejoin="round"/>
<path d="M23.9346 20.7708L21.2729 24.8487L26.9679 26.4155L28.605 20.8612L23.9346 20.7708Z" fill="#E4761B" stroke="#E4761B" stroke-linecap="round" stroke-linejoin="round"/>
<path d="M3.40479 20.8612L5.0319 26.4155L10.7268 24.8487L8.06517 20.7708L3.40479 20.8612Z" fill="#E4761B" stroke="#E4761B" stroke-linecap="round" stroke-linejoin="round"/>
<path d="M10.4053 13.8807L8.81836 16.2812L14.4731 16.5323L14.2722 10.4558L10.4053 13.8807Z" fill="#E4761B" stroke="#E4761B" stroke-linecap="round" stroke-linejoin="round"/>
<path d="M21.5843 13.8807L17.6672 10.3854L17.5366 16.5323L23.1813 16.2812L21.5843 13.8807Z" fill="#E4761B" stroke="#E4761B" stroke-linecap="round" stroke-linejoin="round"/>
<path d="M10.7271 24.8487L14.1219 23.1915L11.1891 20.9015L10.7271 24.8487Z" fill="#E4761B" stroke="#E4761B" stroke-linecap="round" stroke-linejoin="round"/>
<path d="M17.8682 23.1915L21.273 24.8487L20.801 20.9015L17.8682 23.1915Z" fill="#E4761B" stroke="#E4761B" stroke-linecap="round" stroke-linejoin="round"/>
<path d="M21.273 24.8487L17.8682 23.1914L18.1394 25.4111L18.1092 26.3452L21.273 24.8487Z" fill="#D7C1B3" stroke="#D7C1B3" stroke-linecap="round" stroke-linejoin="round"/>
<path d="M10.7271 24.8487L13.8909 26.3452L13.8708 25.4111L14.1219 23.1914L10.7271 24.8487Z" fill="#D7C1B3" stroke="#D7C1B3" stroke-linecap="round" stroke-linejoin="round"/>
<path d="M13.9408 19.4351L11.1084 18.6014L13.1071 17.6874L13.9408 19.4351Z" fill="#233447" stroke="#233447" stroke-linecap="round" stroke-linejoin="round"/>
<path d="M18.0488 19.4351L18.8825 17.6874L20.8913 18.6014L18.0488 19.4351Z" fill="#233447" stroke="#233447" stroke-linecap="round" stroke-linejoin="round"/>
<path d="M10.7271 24.8488L11.2092 20.7709L8.06543 20.8613L10.7271 24.8488Z" fill="#CD6116" stroke="#CD6116" stroke-linecap="round" stroke-linejoin="round"/>
<path d="M20.791 20.7709L21.2731 24.8488L23.9348 20.8613L20.791 20.7709Z" fill="#CD6116" stroke="#CD6116" stroke-linecap="round" stroke-linejoin="round"/>
<path d="M23.1818 16.2812L17.5371 16.5323L18.0594 19.435L18.893 17.6874L20.9018 18.6014L23.1818 16.2812Z" fill="#CD6116" stroke="#CD6116" stroke-linecap="round" stroke-linejoin="round"/>
<path d="M11.1089 18.6014L13.1177 17.6874L13.9413 19.435L14.4736 16.5323L8.81885 16.2812L11.1089 18.6014Z" fill="#CD6116" stroke="#CD6116" stroke-linecap="round" stroke-linejoin="round"/>
<path d="M8.81885 16.2812L11.1892 20.9015L11.1089 18.6014L8.81885 16.2812Z" fill="#E4751F" stroke="#E4751F" stroke-linecap="round" stroke-linejoin="round"/>
<path d="M20.9017 18.6014L20.8013 20.9015L23.1817 16.2812L20.9017 18.6014Z" fill="#E4751F" stroke="#E4751F" stroke-linecap="round" stroke-linejoin="round"/>
<path d="M14.4737 16.5323L13.9414 19.435L14.6043 22.86L14.755 18.3503L14.4737 16.5323Z" fill="#E4751F" stroke="#E4751F" stroke-linecap="round" stroke-linejoin="round"/>
<path d="M17.5368 16.5323L17.2656 18.3403L17.3862 22.86L18.0591 19.435L17.5368 16.5323Z" fill="#E4751F" stroke="#E4751F" stroke-linecap="round" stroke-linejoin="round"/>
<path d="M18.0587 19.4351L17.3857 22.8601L17.8679 23.1915L20.8007 20.9015L20.9011 18.6014L18.0587 19.4351Z" fill="#F6851B" stroke="#F6851B" stroke-linecap="round" stroke-linejoin="round"/>
<path d="M11.1084 18.6014L11.1888 20.9015L14.1216 23.1915L14.6037 22.8601L13.9408 19.4351L11.1084 18.6014Z" fill="#F6851B" stroke="#F6851B" stroke-linecap="round" stroke-linejoin="round"/>
<path d="M18.1093 26.3452L18.1395 25.4111L17.8884 25.1902H14.1018L13.8708 25.4111L13.8909 26.3452L10.7271 24.8487L11.8319 25.7526L14.0717 27.3094H17.9185L20.1684 25.7526L21.2732 24.8487L18.1093 26.3452Z" fill="#C0AD9E" stroke="#C0AD9E" stroke-linecap="round" stroke-linejoin="round"/>
<path d="M17.8681 23.1915L17.386 22.86H14.6038L14.1217 23.1915L13.8706 25.4112L14.1016 25.1902H17.8882L18.1393 25.4112L17.8681 23.1915Z" fill="#161616" stroke="#161616" stroke-linecap="round" stroke-linejoin="round"/>
<path d="M27.9528 11.4702L28.8065 7.37225L27.5309 3.5656L17.8687 10.737L21.5849 13.8807L26.8379 15.4174L28.003 14.0615L27.5008 13.6999L28.3043 12.9667L27.6816 12.4846L28.4851 11.8719L27.9528 11.4702Z" fill="#763D16" stroke="#763D16" stroke-linecap="round" stroke-linejoin="round"/>
<path d="M3.19434 7.37225L4.04807 11.4702L3.5057 11.8719L4.30921 12.4846L3.69653 12.9667L4.50005 13.6999L3.99785 14.0615L5.1529 15.4174L10.4059 13.8807L14.1221 10.737L4.45987 3.5656L3.19434 7.37225Z" fill="#763D16" stroke="#763D16" stroke-linecap="round" stroke-linejoin="round"/>
<path d="M26.8372 15.4175L21.5842 13.8808L23.1812 16.2813L20.8008 20.9015L23.9345 20.8613H28.6049L26.8372 15.4175Z" fill="#F6851B" stroke="#F6851B" stroke-linecap="round" stroke-linejoin="round"/>
<path d="M10.4054 13.8808L5.15243 15.4175L3.40479 20.8613H8.06518L11.1888 20.9015L8.81847 16.2813L10.4054 13.8808Z" fill="#F6851B" stroke="#F6851B" stroke-linecap="round" stroke-linejoin="round"/>
<path d="M17.5368 16.5323L17.8682 10.7369L19.3949 6.60887H12.6152L14.1218 10.7369L14.4734 16.5323L14.5939 18.3603L14.6039 22.86H17.3861L17.4062 18.3603L17.5368 16.5323Z" fill="#F6851B" stroke="#F6851B" stroke-linecap="round" stroke-linejoin="round"/>
</svg>
