<svg width="31" height="19" viewBox="0 0 31 19" fill="none" xmlns="http://www.w3.org/2000/svg">
<path d="M6.34914 3.72366C11.4033 -1.19459 19.5977 -1.19459 24.6519 3.72366L25.2601 4.31557C25.5129 4.56149 25.5129 4.96019 25.2601 5.2061L23.1794 7.23094C23.053 7.35389 22.8481 7.35389 22.7218 7.23094L21.8847 6.41639C18.3588 2.9853 12.6422 2.9853 9.11628 6.41639L8.21986 7.2887C8.09351 7.41166 7.88865 7.41166 7.76229 7.2887L5.6815 5.26387C5.42879 5.01795 5.42879 4.61925 5.6815 4.37334L6.34914 3.72366ZM28.9551 7.91123L30.8071 9.71334C31.0598 9.95926 31.0598 10.358 30.8071 10.6039L22.4567 18.7298C22.204 18.9757 21.7942 18.9757 21.5415 18.7298C21.5415 18.7298 21.5415 18.7298 21.5415 18.7298L15.6149 12.9626C15.5518 12.9011 15.4493 12.9011 15.3862 12.9626C15.3862 12.9626 15.3862 12.9626 15.3862 12.9626L9.45968 18.7298C9.20698 18.9757 8.79726 18.9757 8.54455 18.7298C8.54454 18.7298 8.54454 18.7298 8.54454 18.7298L0.193925 10.6038C-0.0587824 10.3579 -0.0587824 9.95915 0.193925 9.71324L2.04584 7.91113C2.29855 7.66521 2.70827 7.66521 2.96097 7.91113L8.88765 13.6784C8.95083 13.7399 9.05326 13.7399 9.11644 13.6784C9.11644 13.6784 9.11644 13.6784 9.11644 13.6784L15.0428 7.91113C15.2955 7.66521 15.7052 7.6652 15.958 7.91111C15.958 7.91111 15.958 7.91111 15.958 7.91112L21.8846 13.6784C21.9478 13.7399 22.0503 13.7399 22.1134 13.6784L28.04 7.91123C28.2927 7.66532 28.7024 7.66532 28.9551 7.91123Z" fill="white"/>
</svg>
